{"title":"Spin.City.Season03.DVDRip.XviD-SAiNTS","uid":6913267,"size":4758476707,"categoryP":"video","categoryS":"tv_shows","magnet":"?xt=urn:btih:1d723074ae7a1e4c76acce31976a859f31d3b57e&amp;dn=Spin.City.Season03.DVDRip.XviD-SAiNTS&amp;tr=udp%3A%2F%2Ftracker.openbittorrent.com%3A80&amp;tr=udp%3A%2F%2Fopen.demonii.com%3A1337&amp;tr=udp%3A%2F%2Ftracker.coppersurfer.tk%3A6969&amp;tr=udp%3A%2F%2Fexodus.desync.com%3A6969","seeders":1,"leechers":0,"uploader":"doctorgauss","files":52,"time":1324927316,"description":"It's DVDRip &quot;Spin City&quot; full Season 3 with subtitle. Rip and sub by SAiNTS.\n\n\nVideo:\n\nFormat                                   : MPEG-4 Visual\nCodec ID                                 : XVID\nBit rate                                 : 959 Kbps\nWidth                                    : 512 pixels\nHeight                                   : 384 pixels\nDisplay aspect ratio                     : 4:3\nFrame rate                               : 23.976 fps\nColor space                              : YUV\nChroma subsampling                       : 4:2:0\nBit depth                                : 8 bits\nScan type                                : Progressive\nCompression mode                         : Lossy\nBits/(Pixel*Frame)                       : 0.204\nStream size                              : 152 MiB (87%)\n\n\nAudio:\n\nFormat                                   : MPEG Audio\nFormat version                           : Version 1\nFormat profile                           : Layer 3\nMode                                     : Joint stereo\nMode extension                           : MS Stereo\nCodec ID                                 : 55\nCodec ID/Hint                            : MP3\nBit rate mode                            : Variable\nBit rate                                 : 128 Kbps\nChannel(s)                               : 2 channels\nSampling rate                            : 48.0 KHz\nCompression mode                         : Lossy\nStream size                              : 21.0 MiB (12%)\nAlignment                                : Aligned on interleaves\nInterleave, duration                     : 24 ms (0.58 video frame)\nInterleave, preload duration             : 312 ms\nWriting library                          : LAME3.96r\n\n\n","torrent":{"xt":"urn:btih:1d723074ae7a1e4c76acce31976a859f31d3b57e","amp;dn":"Spin.City.Season03.DVDRip.XviD-SAiNTS","amp;tr":["udp%3A%2F%2Ftracker.openbittorrent.com%3A80","udp%3A%2F%2Fopen.demonii.com%3A1337","udp%3A%2F%2Ftracker.coppersurfer.tk%3A6969","udp%3A%2F%2Fexodus.desync.com%3A6969"],"infoHash":"1d723074ae7a1e4c76acce31976a859f31d3b57e","infoHashBuffer":{"type":"Buffer","data":[29,114,48,116,174,122,30,76,118,172,206,49,151,106,133,159,49,211,181,126]},"announce":[],"urlList":[]}}